# xmcd CD database file
#
# Track frame offsets:
#	150
#	32406
#	72653
#	111346
#	133203
#	169251
#	184489
#	208914
#	237398
#	269658
#
# Disc length: 3883 seconds
#
# Revision: 1
# Processed by: cddbd v1.5.1PL2 Copyright (c) Steve Scherf et al.
# Submitted via: CDex 1.50
#
DISCID=a60f290a
DTITLE=Archie Shepp - The Impulse Story
DYEAR=2006
DGENRE=Jazz
TTITLE0=Naima
TTITLE1=Los Olvidados
TTITLE2=The Girl From Ipanema
TTITLE3=Malcolm, Malcolm - Semper Malcolm
TTITLE4=Le Matin des Noires
TTITLE5=Scag
TTITLE6=Mama Too Tight
TTITLE7=Damn if I Know (The Stroller)
TTITLE8=Sophisticated Lady
TTITLE9=Attica Blues
EXTD=YEAR: 2006
EXTT0=
EXTT1=
EXTT2=
EXTT3=
EXTT4=
EXTT5=
EXTT6=
EXTT7=
EXTT8=
EXTT9=
PLAYORDER=
